HIERARCHY
ROOT Hips
{
	OFFSET 0.00000 0.00000 0.00000
	CHANNELS 6 Xposition Yposition Zposition Yrotation Zrotation Xrotation 
	JOINT Lumbar
	{
		OFFSET 0 0 0
		CHANNELS 3 Zrotation Xrotation Yrotation
		JOINT Neck
		{
			OFFSET 0.00 0.2701 0.00
			CHANNELS 3 Zrotation Xrotation Yrotation
			End Site
			{
				OFFSET 0.00 0.1379 0.00
			}
		}
		JOINT RightShoulder
		{
			OFFSET 0.0119 0.2289 0.1181
			CHANNELS 3 Zrotation Xrotation Yrotation
			JOINT RightElbow
			{
				OFFSET 0.00 -0.1475 0.00
				CHANNELS 2 Zrotation Yrotation
				JOINT RightWrist
				{
					OFFSET 0.00 -0.1605 0.00
					CHANNELS 2 Zrotation Xrotation
					End Site
					{
						OFFSET 0.0040 -0.1068 0.0006
					}
				}
			}
		}
		JOINT LeftShoulder
		{
			OFFSET 0.0119 0.2289 -0.1181
			CHANNELS 3 Zrotation Xrotation Yrotation
			JOINT LeftElbow
			{
				OFFSET 0.00 -0.1475 0.00
				CHANNELS 2 Zrotation Yrotation
				JOINT LeftWrist
				{
					OFFSET 0.00 -0.1605 0.00
					CHANNELS 2 Zrotation Xrotation
					End Site
					{
						OFFSET 0.0040 -0.1068 -0.0006
					}
				}
			}
		}
	}
	JOINT RightHip
	{
		OFFSET 0.0316 -0.0424 0.0458
		CHANNELS 3 Zrotation Xrotation Yrotation
		JOINT RightKnee
		{
			OFFSET 0.00 -0.2438 0.00
			CHANNELS 1 Zrotation
			JOINT RightAnkle
			{
				OFFSET 0.00 -0.2449 0.00
				CHANNELS 3 Zrotation Xrotation Yrotation
				End Site
				{
					OFFSET 0.1237 -0.0542 0.0051
				}
			}
		}
	}
	JOINT LeftHip
	{
		OFFSET 0.0316 -0.0424 -0.0458
		CHANNELS 3 Zrotation Xrotation Yrotation
		JOINT LeftKnee
		{
			OFFSET 0.00 -0.2438 0.00
			CHANNELS 1 Zrotation
			JOINT LeftAnkle
			{
				OFFSET 0.00 -0.2449 0.00
				CHANNELS 3 Zrotation Xrotation Yrotation
				End Site
				{
					OFFSET 0.1237 -0.0542 -0.0051
				}
			}
		}
	}
}
MOTION
Frames: 22
Frame Time: 0.02
0.96305 -0.0083 0.05079 166.53285 -26.34285 0.24154 38.37277 0.22614 7.1859 -21.25277 -0.61234 -2.1199 6.66806 -70.77439 14.02948 36.46689 87.51604 3.48051 0.62994 -39.71344 17.23322 9.90375 36.68595 -86.35246 1.72735 -1.13209 45.71693 -7.24504 0.16481 -64.00215 -13.01479 -2.14486 -3.58741 43.48744 3.49663 10.81454 -7.79545 -13.34177 2.59135 3.81959
0.95521 -0.00755 0.05291 166.71426 -25.58154 -0.10773 37.7536 0.24284 6.03949 -21.60459 -0.34141 -2.1199 7.01898 -70.75187 16.497 38.41013 87.03176 3.02082 0.40922 -37.95196 18.87968 8.27697 37.74287 -85.79669 0.8139 -2.18441 46.31859 -7.2924 -0.57269 -65.20985 -13.00187 -2.34686 -3.68901 43.0634 3.37836 9.25463 -10.27961 -12.74002 3.01931 4.01235
0.9477 -0.00665 0.05462 167.02706 -24.83036 -0.55978 37.17372 0.27261 4.68417 -22.02017 0.15615 -2.1199 7.91553 -70.73972 19.69901 40.77747 86.71572 2.7956 0.11841 -36.06737 20.73864 6.48101 38.8646 -85.82768 0.17086 -3.54373 46.91304 -7.23322 -1.71307 -65.95471 -12.7456 -2.60758 -3.80846 42.83778 3.35383 8.53223 -13.06024 -12.43167 2.91198 3.93778
0.94006 -0.00582 0.05649 167.28098 -24.09211 -0.96783 36.59007 0.30033 3.41182 -22.39245 0.55211 -2.1199 8.64761 -70.70267 22.59431 42.95952 86.36953 2.50735 -0.12454 -34.27161 22.50469 4.78918 39.98906 -85.58416 -0.5599 -4.67936 47.51059 -7.20457 -2.65289 -66.81533 -12.6069 -2.8374 -3.91797 42.52112 3.29235 7.41781 -15.66123 -11.98754 3.06204 3.99203
0.93236 -0.00498 0.05847 167.53744 -23.27382 -1.36829 35.93923 0.31352 2.18095 -22.82898 0.94635 -2.1199 9.03025 -70.76163 25.39506 45.13244 85.81868 2.02702 -0.4346 -32.33532 24.26186 2.97218 41.00172 -85.38299 -1.43966 -6.16568 48.11972 -7.24992 -3.67605 -68.09752 -12.44065 -3.08572 -4.03563 42.20997 3.20661 6.30332 -18.46418 -11.54717 3.17561 4.02694
0.92487 -0.00413 0.06012 167.81677 -22.62786 -1.80573 35.44128 0.35903 0.82051 -23.14453 1.39385 -2.11991 10.26217 -70.61572 28.54464 47.40977 85.734 2.00515 -0.6234 -30.66018 26.08474 1.37804 42.24815 -85.23649 -1.94114 -7.00353 48.69649 -7.11764 -4.61707 -68.37415 -12.27461 -3.30861 -4.14019 41.93501 3.19277 5.40792 -20.91275 -11.17129 3.22899 4.0341
0.91787 -0.00328 0.06094 168.1368 -22.44462 -2.34178 35.34851 0.49468 -0.88248 -23.12037 1.96474 -2.11991 13.78883 -69.94244 32.65836 49.95444 86.93702 3.19503 -0.43934 -29.772 28.04462 0.45896 44.18786 -85.00776 -1.50986 -5.88459 49.21572 -6.5061 -5.24213 -66.0995 -12.15378 -3.45377 -4.20681 41.69634 3.36747 4.89512 -22.30185 -10.9004 3.24887 4.03099
0.91109 -0.00244 0.06143 168.47322 -22.43742 -2.90705 35.4108 0.66145 -2.70055 -22.96984 2.57539 -2.11991 18.13394 -69.05496 37.06091 52.57145 88.59525 4.83644 -0.13456 -29.14404 30.05995 -0.23261 46.34531 -84.82613 -0.70115 -4.11839 49.69645 -5.72255 -5.76938 -62.8078 -12.0452 -3.56994 -4.25915 41.48979 3.60911 4.58431 -23.32362 -10.68547 3.22293 4.0073
0.90422 -0.00162 0.06207 168.7944 -22.357 -3.44465 35.4077 0.81103 -4.44238 -22.87041 3.14675 -2.11991 22.05383 -68.23648 41.21594 55.09971 90.02258 6.27343 0.10155 -28.37544 32.04553 -1.0375 48.35983 -84.68173 -0.03328 -2.70834 50.17321 -5.0271 -6.33164 -59.90446 -11.93853 -3.695 -4.31624 41.27775 3.81183 4.19847 -24.5173 -10.44663 3.21369 3.99086
0.8973 -0.00067 0.0627 169.15119 -22.24714 -4.04721 35.38367 0.97385 -6.29517 -22.8006 3.81533 -2.11991 26.22825 -67.53415 45.89886 57.8813 91.56628 7.72517 0.39371 -27.70069 34.06241 -1.80292 50.56605 -84.31859 0.52262 -1.04945 50.73812 -4.2848 -6.94055 -57.29042 -11.78628 -3.84055 -4.38114 41.0335 4.05363 3.76809 -25.70109 -10.21132 3.20408 3.97446
0.89055 0 0.06328 169.43844 -22.24164 -4.51935 35.44049 1.11644 -7.9383 -22.63747 4.28827 -2.11991 30.0464 -66.54392 49.52703 60.14387 92.9619 9.23781 0.59843 -26.8892 36.01876 -2.59887 52.41947 -84.40448 1.38768 0.25152 51.11332 -3.60214 -7.43311 -53.84649 -11.74204 -3.93531 -4.42635 40.86231 4.22878 3.47038 -26.81367 -9.97834 3.19061 3.9562
0.8842 -8e-05 0.06383 169.50893 -22.46935 -4.62973 35.67442 1.19419 -8.99982 -22.25413 4.20714 -2.11991 32.791 -64.76891 50.29032 60.97653 93.93895 10.9151 0.53529 -25.68002 37.8404 -3.49161 53.28256 -85.80136 3.09952 0.38439 50.94878 -3.11448 -7.54992 -48.29557 -11.93288 -3.8939 -4.41509 40.87517 4.20261 3.46465 -27.82247 -9.7356 3.18465 3.94135
0.878 -0.00045 0.06434 169.51287 -22.79781 -4.60632 35.98531 1.25066 -9.84053 -21.78001 3.92769 -2.11991 35.1244 -62.72064 49.95716 61.27745 94.73302 12.61683 0.38003 -24.31877 39.58843 -4.42828 53.77686 -87.62984 5.09179 0.1402 50.59982 -2.69596 -7.56824 -41.96282 -12.24342 -3.79808 -4.38291 40.96066 4.10688 3.58576 -28.76982 -9.49242 3.17767 3.92597
0.87172 -0.00071 0.06487 169.55923 -23.08838 -4.63997 36.26671 1.31771 -10.76456 -21.34242 3.74022 -2.11991 37.57218 -60.82347 50.04369 61.80688 95.54139 14.23626 0.26487 -22.99664 41.34034 -5.37456 54.4139 -89.20383 6.89872 0.08433 50.35131 -2.25344 -7.67765 -36.02741 -12.54117 -3.73464 -4.36712 41.01911 4.04293 3.66151 -29.74226 -9.24945 3.16926 3.90985
0.86549 -0.00088 0.06539 169.55162 -23.35332 -4.69038 36.53212 1.38213 -11.76468 -20.91907 3.54521 -2.11991 40.35921 -58.80001 50.46938 62.3979 96.65008 16.17278 0.16016 -21.80178 43.22376 -6.19561 55.1591 -91.02713 8.96489 -0.02047 50.02937 -1.77161 -7.57746 -29.86248 -12.66781 -3.65664 -4.33223 41.0561 3.98011 3.69429 -30.71555 -9.00803 3.167 3.89701
0.85919 -0.0013 0.06591 169.64441 -23.6913 -4.67387 36.84489 1.44642 -12.55226 -20.44781 3.31982 -2.11991 42.32588 -56.98401 49.92848 62.72925 97.09183 17.44799 0.01172 -20.31277 44.8093 -7.28152 55.59415 -92.4318 10.55094 -0.12167 49.8194 -1.39273 -7.90523 -24.02368 -13.17375 -3.57294 -4.31925 41.15147 3.89821 3.84227 -31.67537 -8.76322 3.15222 3.87748
0.85264 -0.00234 0.06644 169.99634 -24.2224 -4.50364 37.28768 1.5166 -12.80627 -19.85284 3.04532 -2.11991 42.16676 -55.75259 46.94769 62.50537 95.66499 16.89499 -0.24802 -17.96063 45.63856 -9.16929 55.21417 -92.58408 10.756 -0.12037 49.9414 -1.26145 -9.31632 -19.1068 -14.7426 -3.69452 -4.48754 41.41651 3.77499 4.29011 -32.62981 -8.50263 3.10523 3.84035
0.846 -0.00362 0.06696 170.45805 -24.81953 -4.27079 37.77128 1.58705 -12.85323 -19.21615 2.7496 -2.11991 41.18408 -54.75045 43.03754 62.03083 93.58425 15.67315 -0.54674 -15.33452 46.1615 -11.30819 54.54299 -92.29861 10.46423 -0.10581 50.18492 -1.23566 -11.18005 -14.58155 -16.67919 -3.77835 -4.65967 41.73253 3.63604 4.8463 -33.57134 -8.23966 3.0455 3.79648
0.83939 -0.00477 0.06746 170.89178 -25.37512 -4.06765 38.2236 1.65655 -12.99519 -18.6079 2.47217 -2.11991 40.54961 -53.68094 39.57718 61.65161 91.84771 14.752 -0.81964 -12.88819 46.79246 -13.27978 54.03584 -92.20664 10.38863 -0.10066 50.39004 -1.17577 -12.92342 -9.99419 -18.41983 -3.73732 -4.75098 42.0081 3.50721 5.34301 -34.50979 -7.98164 2.99057 3.75538
0.83286 -0.00601 0.06806 171.23018 -25.98343 -3.8548 38.7326 1.72881 -13.12687 -17.95565 2.15065 -2.11991 40.0142 -52.44751 35.9637 61.338 89.90688 13.84357 -1.12993 -10.19653 47.55166 -15.4767 53.38143 -92.15085 10.3618 -0.09365 50.52541 -1.06096 -14.32259 -4.89161 -20.29231 -4.27437 -5.16473 42.36003 3.36199 5.88632 -35.48428 -7.70694 2.94 3.71558
0.82613 -0.00712 0.06844 171.79473 -26.49576 -3.64876 39.13202 1.79565 -13.23221 -17.38725 1.91938 -2.11991 39.07857 -51.61198 32.46171 60.82808 88.23814 12.75225 -1.37039 -7.9613 47.9731 -17.26411 52.97028 -91.91247 10.11405 -0.08294 50.82763 -1.08319 -16.52287 -0.9631 -21.96848 -3.62368 -4.92141 42.56303 3.24993 6.35811 -36.38069 -7.4669 2.87705 3.67138
0.81893 -0.00783 0.06828 172.95108 -26.73094 -3.48028 39.22045 1.84785 -13.32792 -17.05333 1.93619 -2.11991 37.26952 -51.83419 29.50979 59.89986 87.48516 11.29541 -1.40819 -6.98243 47.52617 -17.85117 53.29432 -91.25614 9.35646 -0.0612 51.64607 -1.47103 -21.03865 -0.2086 -23.07693 0.50925 -2.74771 42.35156 3.2174 6.59075 -37.07211 -7.3189 2.78574 3.61763
